<svg width="13" height="13" viewBox="0 0 13 13" fill="none" xmlns="http://www.w3.org/2000/svg">
<path d="M9.50282 4.17217C9.87561 4.17217 10.1778 3.86997 10.1778 3.49717C10.1778 3.12438 9.87561 2.82217 9.50282 2.82217C9.13003 2.82217 8.82782 3.12438 8.82782 3.49717C8.82782 3.86997 9.13003 4.17217 9.50282 4.17217Z" fill="white"/>
<path d="M6.50001 3.61157C5.92873 3.61157 5.37028 3.78098 4.89528 4.09836C4.42028 4.41575 4.05006 4.86686 3.83144 5.39465C3.61282 5.92245 3.55562 6.50321 3.66707 7.06352C3.77853 7.62382 4.05362 8.13849 4.45758 8.54244C4.86153 8.9464 5.3762 9.2215 5.93651 9.33295C6.49681 9.4444 7.07758 9.3872 7.60537 9.16858C8.13316 8.94996 8.58427 8.57974 8.90166 8.10474C9.21904 7.62974 9.38845 7.07129 9.38845 6.50001C9.38845 5.73395 9.08413 4.99926 8.54244 4.45758C8.00076 3.91589 7.26607 3.61157 6.50001 3.61157ZM6.50001 8.37501C6.12917 8.37501 5.76666 8.26504 5.45832 8.05901C5.14997 7.85299 4.90965 7.56015 4.76774 7.21754C4.62582 6.87493 4.58869 6.49793 4.66104 6.13422C4.73339 5.7705 4.91196 5.43641 5.17419 5.17418C5.43641 4.91196 5.7705 4.73338 6.13422 4.66104C6.49793 4.58869 6.87493 4.62582 7.21754 4.76774C7.56015 4.90965 7.85299 5.14997 8.05902 5.45832C8.26504 5.76666 8.37501 6.12917 8.37501 6.50001C8.37501 6.99729 8.17747 7.4742 7.82584 7.82583C7.47421 8.17746 6.99729 8.37501 6.50001 8.37501Z" fill="white"/>
<path d="M6.5 1.88844C8.00187 1.88844 8.18 1.89406 8.77297 1.92125C9.12961 1.92548 9.48288 1.99097 9.81734 2.11484C10.06 2.20845 10.2804 2.35182 10.4643 2.53572C10.6482 2.71963 10.7916 2.94 10.8852 3.18266C11.009 3.51712 11.0745 3.87039 11.0787 4.22703C11.1059 4.82 11.1116 4.99812 11.1116 6.50047C11.1116 8.00281 11.1059 8.18 11.0787 8.77297C11.0745 9.12961 11.009 9.48288 10.8852 9.81734C10.7916 10.06 10.6482 10.2804 10.4643 10.4643C10.2804 10.6482 10.06 10.7916 9.81734 10.8852C9.48288 11.009 9.12961 11.0745 8.77297 11.0787C8.18 11.1059 8.00187 11.1116 6.5 11.1116C4.99813 11.1116 4.82 11.1059 4.22703 11.0787C3.87039 11.0745 3.51712 11.009 3.18266 10.8852C2.94 10.7916 2.71963 10.6482 2.53572 10.4643C2.35182 10.2804 2.20845 10.06 2.11484 9.81734C1.99097 9.48288 1.92548 9.12961 1.92125 8.77297C1.89406 8.18 1.88844 8.00187 1.88844 6.5C1.88844 4.99813 1.89406 4.82 1.92125 4.22703C1.92548 3.87039 1.99097 3.51712 2.11484 3.18266C2.20845 2.94 2.35182 2.71963 2.53572 2.53572C2.71963 2.35182 2.94 2.20845 3.18266 2.11484C3.51712 1.99097 3.87039 1.92548 4.22703 1.92125C4.82 1.89406 4.99813 1.88844 6.5 1.88844ZM6.5 0.875C4.97234 0.875 4.78063 0.881563 4.18062 0.90875C3.71411 0.91817 3.25257 1.00661 2.81563 1.17031C2.4419 1.31483 2.1025 1.53583 1.81916 1.81916C1.53583 2.1025 1.31483 2.4419 1.17031 2.81563C1.00656 3.25272 0.918117 3.71442 0.90875 4.18109C0.881563 4.78109 0.875 4.97188 0.875 6.5C0.875 8.02812 0.881563 8.21938 0.90875 8.81938C0.91817 9.28589 1.00661 9.74743 1.17031 10.1844C1.31483 10.5581 1.53583 10.8975 1.81916 11.1808C2.1025 11.4642 2.4419 11.6852 2.81563 11.8297C3.25272 11.9934 3.71442 12.0819 4.18109 12.0912C4.78109 12.1184 4.97234 12.125 6.5 12.125C8.02766 12.125 8.21938 12.1184 8.81938 12.0912C9.28605 12.0819 9.74775 11.9934 10.1848 11.8297C10.5586 11.6852 10.898 11.4642 11.1813 11.1808C11.4646 10.8975 11.6856 10.5581 11.8302 10.1844C11.9938 9.74725 12.082 9.28555 12.0912 8.81891C12.1184 8.21891 12.125 8.02812 12.125 6.5C12.125 4.97188 12.1184 4.78063 12.0912 4.18062C12.0818 3.71411 11.9934 3.25257 11.8297 2.81563C11.6852 2.4419 11.4642 2.1025 11.1808 1.81916C10.8975 1.53583 10.5581 1.31483 10.1844 1.17031C9.74725 1.00672 9.28555 0.918436 8.81891 0.909219C8.21891 0.881094 8.02812 0.875 6.5 0.875Z" fill="white"/>
</svg>
