<svg width="15" height="15" viewBox="0 0 15 15" fill="none" xmlns="http://www.w3.org/2000/svg">
<path d="M13.7859 4.34063C13.7112 4.06314 13.565 3.81015 13.3618 3.60695C13.1586 3.40376 12.9056 3.2575 12.6281 3.18281C11.6062 2.90625 7.49999 2.90625 7.49999 2.90625C7.49999 2.90625 3.39374 2.90625 2.37186 3.18281C2.09438 3.2575 1.84138 3.40376 1.63819 3.60695C1.435 3.81015 1.28874 4.06314 1.21405 4.34063C1.02324 5.38278 0.930649 6.44054 0.937486 7.5C0.930649 8.55946 1.02324 9.61722 1.21405 10.6594C1.28874 10.9369 1.435 11.1899 1.63819 11.393C1.84138 11.5962 2.09438 11.7425 2.37186 11.8172C3.39374 12.0937 7.49999 12.0937 7.49999 12.0937C7.49999 12.0937 11.6062 12.0937 12.6281 11.8172C12.9056 11.7425 13.1586 11.5962 13.3618 11.393C13.565 11.1899 13.7112 10.9369 13.7859 10.6594C13.9767 9.61722 14.0693 8.55946 14.0625 7.5C14.0693 6.44054 13.9767 5.38278 13.7859 4.34063ZM6.18749 9.46875V5.53125L9.5953 7.5L6.18749 9.46875Z" fill="white"/>
</svg>
