<svg width="15" height="15" viewBox="0 0 15 15" fill="none" xmlns="http://www.w3.org/2000/svg">
<path d="M7.5 1.40625C6.29477 1.40625 5.11661 1.76364 4.1145 2.43323C3.11238 3.10282 2.33133 4.05454 1.87011 5.16802C1.40889 6.28151 1.28821 7.50676 1.52334 8.68883C1.75847 9.8709 2.33884 10.9567 3.19107 11.8089C4.0433 12.6612 5.1291 13.2415 6.31117 13.4767C7.49324 13.7118 8.71849 13.5911 9.83198 13.1299C10.9455 12.6687 11.8972 11.8876 12.5668 10.8855C13.2364 9.88339 13.5938 8.70523 13.5938 7.5C13.592 5.88436 12.9495 4.33538 11.807 3.19295C10.6646 2.05052 9.11564 1.40796 7.5 1.40625ZM7.5 12.6562C6.48019 12.6562 5.48328 12.3538 4.63534 11.7873C3.7874 11.2207 3.12651 10.4154 2.73625 9.47321C2.34598 8.53103 2.24387 7.49428 2.44283 6.49407C2.64178 5.49385 3.13287 4.5751 3.85398 3.85398C4.5751 3.13287 5.49385 2.64178 6.49407 2.44283C7.49428 2.24387 8.53103 2.34598 9.47321 2.73625C10.4154 3.12651 11.2207 3.7874 11.7873 4.63534C12.3538 5.48328 12.6563 6.48019 12.6563 7.5C12.6547 8.86705 12.111 10.1777 11.1443 11.1443C10.1777 12.111 8.86705 12.6547 7.5 12.6562ZM9.32051 9.9457C9.26237 10.0556 9.16299 10.1378 9.04421 10.1744C8.92543 10.211 8.79699 10.1989 8.68711 10.1408C8.32218 9.94465 7.91432 9.84198 7.5 9.84198C7.08569 9.84198 6.67783 9.94465 6.31289 10.1408C6.20332 10.1959 6.07653 10.2059 5.95971 10.1685C5.84289 10.1312 5.74534 10.0496 5.68799 9.94121C5.63065 9.8328 5.61807 9.70624 5.65296 9.58867C5.68785 9.4711 5.76742 9.37188 5.87461 9.3123C6.37544 9.0474 6.93343 8.90892 7.5 8.90892C8.06658 8.90892 8.62456 9.0474 9.12539 9.3123C9.23524 9.37044 9.3175 9.46983 9.35409 9.58861C9.39068 9.70738 9.3786 9.83583 9.32051 9.9457ZM11.1955 6.66445C11.1665 6.7188 11.1271 6.76689 11.0795 6.806C11.0319 6.8451 10.9771 6.87444 10.9182 6.89235C10.8592 6.91025 10.7974 6.91636 10.7361 6.91034C10.6748 6.90431 10.6153 6.88626 10.5609 6.85723C9.61966 6.35306 8.56839 6.08925 7.50059 6.08925C6.43279 6.08925 5.38152 6.35306 4.44024 6.85723C4.33052 6.91581 4.20203 6.92842 4.08303 6.89226C3.96402 6.85611 3.86425 6.77417 3.80567 6.66445C3.74708 6.55474 3.73448 6.42625 3.77063 6.30724C3.80678 6.18824 3.88873 6.08847 3.99844 6.02988C5.07574 5.45333 6.27871 5.15167 7.50059 5.15167C8.72246 5.15167 9.92544 5.45333 11.0027 6.02988C11.0572 6.05892 11.1054 6.09842 11.1445 6.14612C11.1837 6.19382 11.213 6.24878 11.2308 6.30784C11.2487 6.36691 11.2547 6.42892 11.2486 6.49032C11.2424 6.55171 11.2242 6.61129 11.1949 6.66563L11.1955 6.66445ZM10.258 8.30508C10.1996 8.41478 10.0999 8.49677 9.98106 8.53303C9.86217 8.56929 9.73374 8.55685 9.62403 8.49844C8.97052 8.14984 8.24125 7.9675 7.50059 7.9675C6.75993 7.9675 6.03065 8.14984 5.37715 8.49844C5.26768 8.55435 5.14062 8.56503 5.02335 8.52816C4.90608 8.49129 4.80798 8.40983 4.7502 8.30133C4.69241 8.19283 4.67956 8.06598 4.71441 7.94809C4.74927 7.83021 4.82903 7.73073 4.93653 7.67109C5.72567 7.25028 6.60625 7.03016 7.50059 7.03016C8.39492 7.03016 9.27551 7.25028 10.0647 7.67109C10.1191 7.70008 10.1672 7.73952 10.2064 7.78715C10.2455 7.83478 10.2749 7.88967 10.2928 7.94867C10.3107 8.00768 10.3168 8.06963 10.3107 8.13099C10.3047 8.19235 10.2866 8.2519 10.2574 8.30625L10.258 8.30508Z" fill="black"/>
</svg>
