<svg width="15" height="7" viewBox="0 0 15 7" fill="none" xmlns="http://www.w3.org/2000/svg">
<path d="M7.225 1.54376V6.62501H12.7C13.8562 6.54376 14.375 5.83126 14.375 4.95626C14.375 4.03126 13.675 3.28751 12.7375 3.28751C12.5 3.28751 12.3 3.33751 12.0937 3.42501C11.9437 1.96251 10.7 0.818756 9.16875 0.818756C8.4375 0.818756 7.74375 1.09376 7.225 1.54376ZM6.675 2.18126C6.4875 2.06876 6.2875 1.98126 6.06875 1.93751V6.62501H6.9375V1.83751C6.84375 1.93751 6.75625 2.06251 6.675 2.18126ZM5.20625 1.84376V6.62501H5.78125V1.86251C5.6625 1.84376 5.54375 1.83751 5.41875 1.83751C5.34375 1.83751 5.275 1.83751 5.20625 1.84376ZM4.0625 2.25001V6.62501H4.63125V1.96251C4.425 2.03126 4.23125 2.13126 4.0625 2.25001ZM3.01875 3.81251C2.98125 3.81251 2.94375 3.77501 2.9 3.75626V6.62501H3.475V2.78751C3.24375 3.08751 3.0875 3.44376 3.01875 3.81251ZM1.74375 3.63751V6.56876C1.875 6.60626 2.025 6.62501 2.1875 6.62501H2.325V3.58751C2.275 3.58126 2.225 3.57501 2.1875 3.57501C2.025 3.57501 1.875 3.60001 1.74375 3.63751ZM0.625 5.10001C0.625 5.56876 0.8375 5.98126 1.16875 6.26251V3.94376C0.8375 4.21876 0.625 4.63751 0.625 5.10001Z" fill="black"/>
</svg>
