<svg width="15" height="15" viewBox="0 0 15 15" fill="none" xmlns="http://www.w3.org/2000/svg">
<g clip-path="url(#clip0_5_31)">
<path d="M14.9963 3.8275C15.0011 3.3669 14.9507 2.90738 14.8462 2.45875C14.6481 1.64 14.1825 1.015 13.4837 0.556876C13.1273 0.32802 12.7283 0.173671 12.3106 0.103126C11.9876 0.0474984 11.6608 0.0161606 11.3331 0.00937622C11.3081 0.00750122 11.2813 0.00312622 11.2556 0.00125122H3.74125C3.64625 0.00750122 3.55188 0.0118762 3.45688 0.0175012C2.99 0.0443762 2.52562 0.0943762 2.08625 0.267501C1.25125 0.598751 0.64875 1.175 0.295625 2.005C0.175625 2.285 0.113125 2.58313 0.06875 2.885C0.0342029 3.12948 0.0133371 3.3757 0.00625 3.6225C0.00625 3.6425 0.001875 3.66125 0 3.68063V11.32C0.00625 11.4075 0.010625 11.4969 0.016875 11.585C0.048125 12.0944 0.113125 12.6 0.3275 13.0681C0.73375 13.9556 1.41375 14.5387 2.34875 14.8187C2.61125 14.8981 2.88375 14.9356 3.15688 14.9612C3.50375 14.9944 3.85063 14.9987 4.19875 14.9987H11.0925C11.4206 14.9985 11.7483 14.9777 12.0738 14.9362C12.5875 14.87 13.0713 14.7175 13.5081 14.43C14.0263 14.095 14.4348 13.6155 14.6831 13.0506C14.7994 12.7881 14.8663 12.5069 14.9144 12.2231C14.985 11.8012 15.0006 11.3744 15 10.9481C14.9987 8.57312 15 6.20125 14.9981 3.8275H14.9963ZM10.9819 6.32125V9.89125C10.9819 10.1519 10.9456 10.4081 10.8294 10.645C10.6481 11.0137 10.3544 11.2463 9.96187 11.3575C9.74312 11.42 9.52063 11.4556 9.29313 11.4656C8.69938 11.4937 8.185 11.0906 8.07875 10.5056C8.03413 10.253 8.07339 9.99279 8.19053 9.76461C8.30766 9.53643 8.49625 9.35284 8.7275 9.24188C8.92937 9.14188 9.14625 9.08563 9.36375 9.03938C9.6 8.98813 9.8375 8.94375 10.0725 8.88937C10.2437 8.85 10.3581 8.74563 10.3912 8.56688C10.3997 8.52723 10.4039 8.48679 10.4037 8.44625C10.4037 7.31188 10.4037 6.1775 10.4025 5.04438C10.4021 5.00529 10.3966 4.96643 10.3862 4.92875C10.3612 4.835 10.2925 4.77688 10.1962 4.7825C10.0962 4.78875 9.9975 4.80438 9.89937 4.82375C9.42437 4.9175 8.94938 5.01313 8.47437 5.10875L7.02125 5.4025L6.1625 5.57625C6.1525 5.57813 6.1425 5.5825 6.1325 5.58438C5.95938 5.6325 5.89687 5.71125 5.88875 5.89063C5.8875 5.91688 5.88875 5.94438 5.88875 5.97188C5.8875 7.59813 5.88875 9.22437 5.88687 10.85C5.88687 11.1125 5.8575 11.3725 5.7525 11.6169C5.57875 12.0169 5.27125 12.2669 4.85625 12.3875C4.6375 12.45 4.4125 12.4875 4.18438 12.495C3.58438 12.5175 3.0875 12.12 2.98438 11.53C2.89688 11.0225 3.12812 10.4769 3.70563 10.2331C3.92875 10.1394 4.16188 10.0881 4.39813 10.0394C4.5775 10.0019 4.7575 9.96688 4.93563 9.92875C5.175 9.87687 5.3 9.72688 5.31063 9.4825V9.38875C5.31063 7.53875 5.31062 5.6875 5.31187 3.8375C5.31187 3.76063 5.32 3.68125 5.33813 3.60625C5.38188 3.42813 5.50875 3.32625 5.67937 3.2825C5.83875 3.24125 6.00125 3.2125 6.16313 3.17938C6.62125 3.08563 7.07937 2.99438 7.53813 2.90188L8.95687 2.61438C9.37563 2.53063 9.79437 2.44563 10.2131 2.3625C10.3506 2.33563 10.4894 2.3075 10.6275 2.29625C10.8212 2.28063 10.9544 2.4025 10.9738 2.5975C10.9788 2.64313 10.9812 2.69 10.9812 2.73688C10.9825 3.93063 10.9825 5.12563 10.9812 6.31938L10.9819 6.32125Z" fill="white"/>
</g>
<defs>
<clipPath id="clip0_5_31">
<rect width="15" height="15" fill="white"/>
</clipPath>
</defs>
</svg>
